# xmcd CD database file
#
# Track frame offsets:
#	150
#	18230
#	34463
#	51663
#	70550
#	86685
#	100313
#	116875
#	131313
#	147210
#	162888
#	178578
#	192860
#	206525
#	222215
#	237503
#	256263
#	273693
#	288710
#	306375
#
# Disc length: 4289 seconds
#
# Revision: 6
# Processed by: cddbd v1.5.2PL0 Copyright (c) Steve Scherf et al.
# Submitted via: CDex 1.70beta2
#
DISCID=3610bf14
DTITLE=Various Artist - TOP 2000 CD 1
DYEAR=2001
DGENRE=Other
TTITLE0=Rednex - The Spirit Of The Hawk
TTITLE1=ATC - Around The World (la la la la la)
TTITLE2=Anton feat. DJ Ötzi - Anton Aus Tirol
TTITLE3=Melanie C. - I Turn To You
TTITLE4=Vengaboys - Shalala lala
TTITLE5=Zlatko - Ich vermiss' Dich... (Wie Die Hölle)
TTITLE6=French Affair - My Heart Goes Boom (LaDiDaDa)
TTITLE7=Gigi D'Agostino - Bla Bla Bla
TTITLE8=Eiffel 65 - Too Much Of Heaven
TTITLE9=Stefan Raab - Wadde Hadde Dudde Da
TTITLE10=Zlatko and Jürgen - Großer Bruder
TTITLE11=Modern Talking feat. Eric Singleton - China In Her Eyes
TTITLE12=Olsen Brothers - Fly On The Wings Of Love
TTITLE13=Shanks and Bigfoot - Sing-A-Song
TTITLE14=Tic Tac Toe - Isch liebe disch
TTITLE15=Band Ohne Namen -Take My Heart
TTITLE16=Echt - Weinst Du
TTITLE17='N Sync - Bye Bye Bye
TTITLE18=Backstreet Boys - Show Me The Meaning Of Being Lonely
TTITLE19=Britney Spears - Lucky
EXTD=YEAR: 2001
EXTT0=
EXTT1=
EXTT2=
EXTT3=
EXTT4=
EXTT5=
EXTT6=
EXTT7=
EXTT8=
EXTT9=
EXTT10=
EXTT11=
EXTT12=
EXTT13=
EXTT14=
EXTT15=
EXTT16=
EXTT17=
EXTT18=
EXTT19=
PLAYORDER=
